<svg width="15.000000" height="15.000000" viewBox="0 0 15 15" fill="none" xmlns="http://www.w3.org/2000/svg" xmlns:xlink="http://www.w3.org/1999/xlink">
	<desc>
			Created with Pixso.
	</desc>
	<defs/>
	<path id="Vector" d="M5.25 9L5.25 11.25L9.75 11.25L9.75 9L15 9L15 14.25C15 14.44 14.92 14.63 14.78 14.78C14.63 14.92 14.44 15 14.25 15L0.75 15C0.55 15 0.36 14.92 0.21 14.78C0.07 14.63 0 14.44 0 14.25L0 9L5.25 9ZM6.75 7.5L8.25 7.5L8.25 9.75L6.75 9.75L6.75 7.5ZM3.75 3L3.75 0.75C3.75 0.55 3.82 0.36 3.96 0.21C4.11 0.07 4.3 0 4.5 0L10.5 0C10.69 0 10.88 0.07 11.03 0.21C11.17 0.36 11.25 0.55 11.25 0.75L11.25 3L14.25 3C14.44 3 14.63 3.07 14.78 3.21C14.92 3.36 15 3.55 15 3.75L15 7.5L9.75 7.5L9.75 6L5.25 6L5.25 7.5L0 7.5L0 3.75C0 3.55 0.07 3.36 0.21 3.21C0.36 3.07 0.55 3 0.75 3L3.75 3ZM5.25 1.5L5.25 3L9.75 3L9.75 1.5L5.25 1.5Z" fill="#2B2B2B" fill-opacity="1.000000" fill-rule="nonzero"/>
</svg>
